<svg id="text" width="216" height="32" viewBox="0 0 216 32" fill="none" xmlns="http://www.w3.org/2000/svg">
<path d="M10.84 27.4q-1.48 0-1.36-.48.16-.64.68-1.76.52-1.16 1.44-2.8a57 57 0 0 1 1.64-2.84A78 78 0 0 1 15 16.84q2.56-3.72 4-5.84t1.76-2.64q3.16-4.84 3.16-6.4 0-.52-.36-.68Q22.48.8 21.08.8q-3.12 0-9.36 2.68a24.7 24.7 0 0 0-6.76 4.28Q1.8 10.68 1.8 13.12q0 1 .52 1.84.56.8 2.4 1 1.52.2 1.36.48-.4.76-2.08.76-1.44 0-2.84-.96Q.04 15.48.04 13.8q0-2.32 1.68-4.48 1.36-1.72 4.12-3.6 3.2-2.24 6.6-3.36 6.6-2.24 9.4-2.24 3.32 0 4.16 2.12.36.92-4.8 8.56-3.32 4.92-5.6 8.6-2.24 3.64-3.48 6.08v.08q0 .2.28.52t.28.52q-.08.8-1.84.8m24.52 4.08q-.52 0-1.08-.32-2.28-1.36-7.96-7.92-6-7.04-6-9.36 0-.44.16-.6.44-.52 1.84-1.48 1.4-1 3.76-2.44A102 102 0 0 1 30 7a97 97 0 0 1 3.92-2.2q5.48-2.96 8.92-3.08H43q.92 0 .92.52 0 .4-.64.44-7.56 1.16-20.8 10.68-.12.04-.12.28 0 1 2.2 4.2a121 121 0 0 0 2.32 3.2 69 69 0 0 0 2.6 3.08q4.88 5.4 7.08 5.4.48 0 .96-.28t.56-.28h.16q.36 0 .36.24 0 .6-1.2 1.28-.52.32-1.08.64-.52.36-.96.36" fill="#000"/>
<path d="M41.675 26.4q-.88.08-1.68-.44-.8-.56-.8-1.24 0-1.24 2.36-4.76 2.6-3.92 2.6-4.52 0-.36-.4-.36-1.04 0-4 3.08a38 38 0 0 0-3.32 3.8 49 49 0 0 0-2.88 4.24q-.08.08-.44.08-1.76 0-1.6-.48a61 61 0 0 1 1.72-4.12 121 121 0 0 1 2.48-5.08q4.76-9.2 6.48-10.52.48-.36 1.32-.36 1.4 0 1.4.56 0 .12-.24.32-5.24 3.88-9.28 14.6.04-.04.4-.36.4-.36 1.12-1.04.76-.68 1.28-1.24.56-.6.96-1.04 1.96-2.2 4.32-3.28.56-.24 1.28-.24 1.64 0 1.64 1.2 0 .76-.76 1.8-4.32 6.04-4.32 8.12 0 .44.28.56.64.28 3.16-1.32a19 19 0 0 0 5.04-4.76q.44-.6.8-.6.12 0 .12.08 0 .2-.36.76-1.76 2.76-4.88 4.88-2.8 1.84-3.8 1.68" fill="#000"/>
<path d="M57.505 26.44q-.8 0-1.48-.52-.64-.52-.76-1-.12-.56 1.48-4l-.92 1.32q-.6.88-1.2 1.56t-1.12 1.2q-1.52 1.44-2.56 1.2-2.4-.56-2.4-2.72 0-1.72 1.64-4.4a10 10 0 0 1 1.32-1.6 16 16 0 0 1 1.84-1.56q2.679-1.96 5.16-1.96 1.52 0 2.88.8.44.32.44.68 0 .28-.16.28-.04 0-.08-.04-.84-.92-2.24-.92-1.64 0-3.56 1.24t-3.44 3.32q-2.16 3-2.16 4.88 0 1.08.76 1.36.96.4 4.08-3.56a39 39 0 0 0 2.12-2.8 31 31 0 0 0 1.4-2.12q.24-.44.88-.44 1.2 0 1.2.72 0 .12-.04.16-3.48 5.52-3.48 7.48 0 .48.28.52.84.24 2.8-1.24 2.36-1.76 4.44-4.68.44-.6.8-.6.12 0 .12.08 0 .2-.36.76-.84 1.32-1.88 2.48a17 17 0 0 1-2.24 2.16q-1.761 1.48-2.88 1.84-.28.12-.68.12" fill="#000"/>
<path d="M65.759 26.76q-2.84-.6-2.84-2.64 0-1.2.76-3.48.56-1.72 1.52-3.92a71 71 0 0 1 2.48-4.96q3.56-6.68 5.4-6.96.16-.04.52-.04 1.96 0 1.96 1.84 0 2.52-4.24 7.16a32 32 0 0 1-5.2 4.68q-1.68 4-1.68 5.88 0 1.24.76 1.48.6.16 2.8-1.44a18.2 18.2 0 0 0 4.32-4.48q.28-.4.52-.4.16 0 .16.16t-.2.48q-1.521 2.44-3.96 4.64-2.36 2.16-3.08 2m.8-9.4q1.44-1.08 2.4-2.16l2.36-2.8q3.28-3.88 3.28-5.72 0-.36-.4-.36-.681 0-2.16 1.96-.44.64-.92 1.24t-.96 1.24q-.6.88-1.12 1.72-.48.84-.92 1.72-.12.16-.52.96-.36.8-1.04 2.2" fill="#000"/><path d="M73.324 26.32q-1.161 0-2.04-.56-1.16-.8-1.16-2.32 0-1.64 1.4-4 1.88-3.08 5.52-5.4.92-.6 1.84-.6 1.2 0 1.72.76.32.44.32 1 0 1.68-2.72 3.68a15.5 15.5 0 0 1-1.72 1.04 7.4 7.4 0 0 1-1.92.64l-1.72.36q-.96 1.72-.96 2.88 0 1.6 1.88 1.6 1.479 0 3.6-1.24 2.84-1.64 4.88-4.56.32-.48.6-.48.12 0 .12.16 0 .2-.28.6-3.88 5.84-8.76 6.4-.16.04-.32.04zm0-6.08q1.119 0 2.88-1 2.48-1.4 3.48-3.6.28-.56.28-.92t-.28-.36q-.52 0-2.12 1.28a34 34 0 0 0-2.28 2.16 31 31 0 0 0-2.08 2.4q-.04.04.12.04" fill="#000"/>
<path d="M90.402 26.44q-.76 0-1.44-.4-.64-.36-.84-.8-.12-.32-.12-.84 0-.68.16-1.56.16-.92.48-1.96a9 9 0 0 1-.8 1.2q-.48.68-1.2 1.6-2.16 2.56-3.52 2.56a1 1 0 0 1-.32-.04q-2.4-.56-2.4-2.72 0-1.72 1.64-4.4 1.04-1.64 3.16-3.16 2.72-2 5.16-2a5.2 5.2 0 0 1 1.72.28l1.2-2.16a40 40 0 0 0 1.52-2.96q.64-1.32 1.04-2.28.32-.72 2.24-.72.88 0 .76.2l-5.28 8.76q.16.24.08.56-.04.24-.2.08l-.16-.16-.52.88q-3.04 5.16-3.04 8.04 0 1.12.76 1.12.84 0 2.56-1.28 2.36-1.76 4.44-4.68.44-.6.8-.6.12 0 .12.08 0 .2-.36.76a22.4 22.4 0 0 1-4 4.64q-1.8 1.56-2.8 1.84-.4.12-.84.12m-7.6-.88q.96.4 4.08-3.56 1.2-1.52 2.08-2.72a30 30 0 0 0 1.44-2.2q.16-.32.48-.88.36-.6.88-1.4a.9.9 0 0 0-.28-.04h-.24q-1.64 0-3.52 1.24-1.88 1.2-3.52 3.32-1.16 1.48-1.68 2.72-.48 1.24-.48 2.16 0 1.08.76 1.36m28.014 5.2q-2.319 0-4.2-.84-1.839-.84-3-2.28-1.8-2.24-1.8-5.56 0-2.36.88-4.28 1.76-4.08 5.84-7 4.04-2.88 7.88-2.88 2.4 0 4.04 1.2t1.64 3.44q0 1.56-.84 3.04-.8 1.44-2.04 1.92a.4.4 0 0 1-.16-.04q-.08-.08-.04-.12.68-.96 1.24-2 .56-1.08.56-2.36 0-1.24-.76-2.16a4.7 4.7 0 0 0-1.88-1.48 5.1 5.1 0 0 0-2.32-.56q-1.64 0-3.28.76t-3.28 2q-3.519 2.76-4.8 7.08-.6 1.92-.6 3.72 0 3.44 2.36 5.56.96.84 2.04 1.28 1.08.48 2.32.48 4.04 0 8.8-2.96 4.8-2.92 10.16-8.88l-3.64.08q-1.72-.04-1.72-.72 0-.8 1.68-1.68.68-.24.92-.24.36 0 .44.56.081.52.36.6.681.04 1.44.08h1.64q3.76-4.6 6.8-7.68 3.08-3.08 5.72-4.96 2.68-1.88 5.16-2.8.36-.16.88-.16 1.36 0 1.36.84 0 .36-.4.76-5.36 5.68-7.84 13.56.6-.04 1.12-.08.56-.04 1.04-.12.2-.04.32-.04h.32q.72 0 .72.2 0 .64-3.76.92-1 3.28-1 6.12 0 2.64.8 3.08.08.04.16.04.08.04.16.04.36 0 .72-.36l.4-.4q.08.08.08.28 0 .8-.52 1.52-.48.72-1.16.72-.44 0-.88-.36-1.24-1-1.24-3.8v-.64q0-.36.04-.68a34 34 0 0 1 .28-2.52q.24-1.36.6-2.96l-9.68.68q-5.6 6.44-10.6 9.72-5 3.32-9.48 3.32m21.16-14.24q1.521-.04 3.72-.12 2.24-.08 5.08-.2 1.881-6.48 3.84-10.08.32-.64.68-1.24.4-.6.8-1.16-1 .32-2.24 1.12a25 25 0 0 0-2.36 1.64 41 41 0 0 0-1.84 1.52 44 44 0 0 0-3.96 4.08 374 374 0 0 0-3.72 4.44m14.386 11.12q-.16 0-.16-.12 0-.52 2.72-1.92a18 18 0 0 0 1.24-.64q.56-.36.96-.64 2.44-1.8 2.44-3.12 0-1-1.96-1-4.56-.08-4.56-2 0-.84.72-1.6.84-.96 2.8-1.84 2.12-.96 3.88-.96 1.56 0 2.36.76.36.36.36.88 0 .56-.36 1t-.8.44q-.8 0-.88-1.08 0-.76-.24-.88t-1.28-.12q-1.32 0-2.96.88-1.96 1-1.84 2.4.08.8 3.04.8 4.04 0 4.04 1.96 0 2.12-3.48 4.24-2.2 1.36-5.36 2.4-.44.16-.68.16m21.094-1.24q-.879.08-1.68-.44-.8-.56-.8-1.24 0-1.24 2.36-4.76 2.6-3.92 2.6-4.52 0-.36-.4-.36-1.04 0-4 3.08a38 38 0 0 0-3.32 3.8 49 49 0 0 0-2.88 4.24q-.08.08-.44.08-1.76 0-1.6-.48a62 62 0 0 1 1.72-4.12q1.04-2.28 2.48-5.08 4.761-9.2 6.48-10.52.48-.36 1.32-.36 1.4 0 1.4.56 0 .12-.24.32-5.24 3.88-9.28 14.6a67 67 0 0 0 1.52-1.4q.76-.68 1.28-1.24.561-.6.96-1.04 1.96-2.2 4.32-3.28.56-.24 1.28-.24 1.64 0 1.64 1.2 0 .76-.76 1.8-4.32 6.04-4.32 8.12 0 .44.28.56.64.28 3.16-1.32a19 19 0 0 0 5.04-4.76q.44-.6.8-.6.12 0 .12.08 0 .2-.36.76-1.76 2.76-4.88 4.88-2.8 1.84-3.8 1.68" fill="#000"/>
<path d="M173.206 26.48q-.56 0-.56-.36 0-.04.08-.28 1.88-3.6 4.44-10.28.28-.72.96-1.24.68-.56 1.16-.56.52 0 .44.56-.4.84-.96 2.16t-1.32 3.08q1.12-1.48 3.32-3.32a58 58 0 0 1 1.92-1.52q.84-.6 1.4-.88t1.24-.28q.8 0 1.36.4t.56.92q0 .32-.32.72-.28.36-.6.36-.16 0-.68-.32-.48-.36-1.04-.36-.6 0-1.4.36-5.08 2.28-8.76 10.28-.24.56-1.24.56m20.822-.04a2.4 2.4 0 0 1-1.48-.52q-.64-.52-.76-1-.12-.56 1.48-4l-.92 1.32q-.6.88-1.2 1.56t-1.12 1.2q-1.52 1.44-2.56 1.2-2.4-.56-2.4-2.72 0-1.72 1.64-4.4.52-.8 1.32-1.6a16 16 0 0 1 1.84-1.56q2.68-1.96 5.16-1.96 1.52 0 2.88.8.44.32.44.68 0 .28-.16.28-.04 0-.08-.04-.84-.92-2.24-.92-1.64 0-3.56 1.24t-3.44 3.32q-2.16 3-2.16 4.88 0 1.08.76 1.36.96.4 4.08-3.56a39 39 0 0 0 2.12-2.8 31 31 0 0 0 1.4-2.12q.24-.44.88-.44 1.2 0 1.2.72 0 .12-.04.16-3.48 5.52-3.48 7.48 0 .48.28.52.84.24 2.8-1.24 2.36-1.76 4.44-4.68.44-.6.8-.6.12 0 .12.08 0 .2-.36.76-.84 1.32-1.88 2.48a17 17 0 0 1-2.24 2.16q-1.76 1.48-2.88 1.84-.28.12-.68.12" fill="#000"/>
<path d="M202.002 27.96q-1.72 0-1.72-2.12 0-1.76 1.08-4.76.2-.64.92-2.32.72-1.72 1.92-4.52l-1.72.28a10 10 0 0 0-.84.16q-.32.04-.48 0a.27.27 0 0 1-.12-.24q0-.88.36-.96l3.36-.48q.52-.88 1.24-2.04.72-1.2 1.68-2.68 1.24-1.64 2.32-2.28a6 6 0 0 1 1.24-.4q.76-.2 1.76-.2 1.521 0 2.04 1.2.16.36.16.76 0 .8-.6.8-.68 0-1.12-1.16-.24-.68-1-.68-1.12 0-2 1a8 8 0 0 0-.72.88q-.4.6-1.04 1.52-.68 1-1.16 1.8-.44.76-.72 1.32.12-.04.52-.08t1.04-.08q.48-.04.92-.04.441-.04.84-.04 1.68 0 1.6.16-.4.36-5.48 1.24-1.239 2.16-2.76 5.92-1.92 4.6-1.92 6.52 0 .76.4.96.44.24.44.28 0 .28-.44.28" fill="#000"/>
</svg>